<svg xmlns="http://www.w3.org/2000/svg" xmlns:xlink="http://www.w3.org/1999/xlink"><symbol viewBox="0 0 24 24" id="facebook" xmlns="http://www.w3.org/2000/svg"><path d="M12 0C5.373 0 0 5.373 0 12s5.373 12 12 12 12-5.373 12-12S18.627 0 12 0zm3 8h-1.35c-.538 0-.65.221-.65.778V10h2l-.209 2H13v7h-3v-7H8v-2h2V7.692C10 5.923 10.931 5 13.029 5H15v3z"/></symbol><symbol viewBox="0 0 24 24" id="instagram" xmlns="http://www.w3.org/2000/svg"><path d="M14.829 6.302c-.738-.034-.96-.04-2.829-.04s-2.09.007-2.828.04c-1.899.087-2.783.986-2.87 2.87-.033.738-.041.959-.041 2.828s.008 2.09.041 2.829c.087 1.879.967 2.783 2.87 2.87.737.033.959.041 2.828.041 1.87 0 2.091-.007 2.829-.041 1.899-.086 2.782-.988 2.87-2.87.033-.738.04-.96.04-2.829s-.007-2.09-.04-2.828c-.088-1.883-.973-2.783-2.87-2.87zM12 15.595a3.595 3.595 0 110-7.19 3.595 3.595 0 010 7.19zm3.737-6.491a.84.84 0 110-1.68.84.84 0 010 1.68zM14.333 12a2.333 2.333 0 11-4.666 0 2.333 2.333 0 014.666 0zM12 0C5.373 0 0 5.373 0 12s5.373 12 12 12 12-5.373 12-12S18.627 0 12 0zm6.958 14.886c-.115 2.545-1.532 3.955-4.071 4.072-.747.034-.986.042-2.887.042s-2.139-.008-2.886-.042c-2.544-.117-3.955-1.529-4.072-4.072C5.008 14.14 5 13.901 5 12c0-1.901.008-2.139.042-2.886.117-2.544 1.529-3.955 4.072-4.071C9.861 5.008 10.099 5 12 5s2.14.008 2.887.043c2.545.117 3.957 1.532 4.071 4.071.034.747.042.985.042 2.886 0 1.901-.008 2.14-.042 2.886z"/></symbol><symbol viewBox="0 0 97.75 97.75" id="ok" xmlns="http://www.w3.org/2000/svg"><path d="M48.921 40.507a8.367 8.367 0 008.367-8.443c-.017-4.679-3.742-8.402-8.411-8.406a8.398 8.398 0 00-8.432 8.508c.035 4.66 3.794 8.358 8.476 8.341z"/><path d="M48.875 0C21.882 0 0 21.883 0 48.875S21.882 97.75 48.875 97.75 97.75 75.867 97.75 48.875 75.868 0 48.875 0zm.07 14.863c9.52.026 17.161 7.813 17.112 17.438-.048 9.403-7.814 17.024-17.318 16.992-9.407-.032-17.122-7.831-17.066-17.253.053-9.525 7.772-17.203 17.272-17.177zm19.282 41.194c-2.105 2.161-4.639 3.725-7.453 4.816-2.66 1.031-5.575 1.55-8.461 1.896.437.474.642.707.914.979 3.916 3.937 7.851 7.854 11.754 11.802 1.33 1.346 1.607 3.014.875 4.577-.799 1.71-2.592 2.834-4.351 2.713-1.114-.077-1.983-.63-2.754-1.407-2.956-2.974-5.968-5.895-8.862-8.925-.845-.882-1.249-.714-1.994.052a589.856 589.856 0 01-9.034 9.072c-1.365 1.346-2.989 1.59-4.573.82-1.683-.814-2.753-2.533-2.671-4.262.058-1.166.632-2.06 1.434-2.858 3.877-3.869 7.742-7.75 11.608-11.628.257-.257.495-.53.868-.93-5.273-.551-10.028-1.849-14.099-5.032-.506-.396-1.027-.778-1.487-1.222-1.783-1.711-1.962-3.672-.553-5.69 1.207-1.728 3.231-2.19 5.336-1.197.408.191.796.433 1.168.689 7.586 5.213 18.008 5.356 25.624.233.754-.576 1.561-1.05 2.496-1.289 1.816-.468 3.512.201 4.486 1.791 1.115 1.817 1.102 3.589-.271 5z"/></symbol><symbol viewBox="0 0 24 24" id="twitter" xmlns="http://www.w3.org/2000/svg"><path d="M12 0C5.373 0 0 5.373 0 12s5.373 12 12 12 12-5.373 12-12S18.627 0 12 0zm6.066 9.645c.183 4.04-2.83 8.544-8.164 8.544A8.127 8.127 0 015.5 16.898a5.778 5.778 0 004.252-1.189 2.879 2.879 0 01-2.684-1.995 2.88 2.88 0 001.298-.049c-1.381-.278-2.335-1.522-2.304-2.853.388.215.83.344 1.301.359a2.877 2.877 0 01-.889-3.835 8.153 8.153 0 005.92 3.001 2.876 2.876 0 014.895-2.62 5.73 5.73 0 001.824-.697 2.884 2.884 0 01-1.263 1.589 5.73 5.73 0 001.649-.453 5.765 5.765 0 01-1.433 1.489z"/></symbol><symbol viewBox="0 0 24 24" id="vk" xmlns="http://www.w3.org/2000/svg"><path d="M12 0C5.373 0 0 5.373 0 12s5.373 12 12 12 12-5.373 12-12S18.627 0 12 0zm6.344 16.163h-1.867c-1.055 0-1.232-.601-2.102-1.469-.785-.785-1.22-.183-1.202.935.006.297-.141.534-.495.534-1.105 0-2.694.156-4.304-1.58C6.727 12.804 5 9.235 5 8.884c0-.208.172-.301.459-.301h1.898c.503 0 .545.249.686.568.584 1.331 1.981 4.002 2.354 2.511.214-.856.301-2.839-.615-3.01-.52-.096.396-.652 1.722-.652.33 0 .688.035 1.054.12.673.156.676.458.666.898-.034 1.666-.235 2.786.204 3.069.419.271 1.521-1.502 2.104-2.871.159-.378.191-.632.643-.632h2.322c1.216 0-.159 1.748-1.21 3.112-.847 1.099-.802 1.12.183 2.034.701.651 1.53 1.54 1.53 2.043 0 .238-.186.39-.656.39z"/></symbol><symbol viewBox="0 0 24 24" id="youtube" xmlns="http://www.w3.org/2000/svg"><path d="M12 0C5.373 0 0 5.373 0 12s5.373 12 12 12 12-5.373 12-12S18.627 0 12 0zm4.441 16.892c-2.102.144-6.784.144-8.883 0C5.282 16.736 5.017 15.622 5 12c.017-3.629.285-4.736 2.558-4.892 2.099-.144 6.782-.144 8.883 0C18.718 7.264 18.982 8.378 19 12c-.018 3.629-.285 4.736-2.559 4.892zM10 9.658l4.917 2.338L10 14.342V9.658z"/></symbol></svg>